<svg width="50" height="50" viewBox="0 0 50 50" fill="none" xmlns="http://www.w3.org/2000/svg">
<path d="M13 0C11.356 0 10 1.4125 10 3.125V4.16667H3.4C1.48 4.16667 0 5.91667 0 7.94375V46.225C0 48.25 1.48 50 3.4 50H46.6C48.52 50 50 48.25 50 46.2229V7.94375C50 5.91667 48.52 4.16667 46.6 4.16667H40V3.125C40 1.4125 38.644 0 37 0C35.356 0 34 1.4125 34 3.125V4.16667H16V3.125C16 1.4125 14.644 0 13 0ZM13 2.08333C13.572 2.08333 14 2.52917 14 3.125V9.375C14 9.97083 13.572 10.4167 13 10.4167C12.8678 10.4201 12.7363 10.3955 12.6135 10.3444C12.4906 10.2932 12.3791 10.2166 12.2856 10.1192C12.192 10.0218 12.1185 9.90558 12.0694 9.77765C12.0203 9.64972 11.9967 9.51273 12 9.375V3.125C12 2.52917 12.428 2.08333 13 2.08333ZM37 2.08333C37.572 2.08333 38 2.52917 38 3.125V9.375C38 9.97083 37.572 10.4167 37 10.4167C36.8678 10.4201 36.7363 10.3955 36.6135 10.3444C36.4906 10.2932 36.3791 10.2166 36.2856 10.1192C36.192 10.0218 36.1185 9.90558 36.0694 9.77765C36.0203 9.64972 35.9967 9.51273 36 9.375V3.125C36 2.52917 36.428 2.08333 37 2.08333ZM3.4 6.25H10V9.375C10 11.0875 11.356 12.5 13 12.5C14.644 12.5 16 11.0875 16 9.375V6.25H34V9.375C34 11.0875 35.356 12.5 37 12.5C38.644 12.5 40 11.0875 40 9.375V6.25H46.6C47.344 6.25 48 6.9375 48 7.94375V46.225C48 47.2292 47.344 47.9167 46.6 47.9167H3.4C2.656 47.9167 2 47.2292 2 46.2229V7.94375C2 6.9375 2.656 6.25 3.4 6.25ZM27 16.6667C26.7348 16.6667 26.4804 16.7764 26.2929 16.9718C26.1054 17.1671 26 17.4321 26 17.7083V23.9583C26 24.2346 26.1054 24.4996 26.2929 24.6949C26.4804 24.8903 26.7348 25 27 25H33C33.2652 25 33.5196 24.8903 33.7071 24.6949C33.8946 24.4996 34 24.2346 34 23.9583V17.7083C34 17.4321 33.8946 17.1671 33.7071 16.9718C33.5196 16.7764 33.2652 16.6667 33 16.6667H27ZM37 16.6667C36.7348 16.6667 36.4804 16.7764 36.2929 16.9718C36.1054 17.1671 36 17.4321 36 17.7083V23.9583C36 24.2346 36.1054 24.4996 36.2929 24.6949C36.4804 24.8903 36.7348 25 37 25H43C43.2652 25 43.5196 24.8903 43.7071 24.6949C43.8946 24.4996 44 24.2346 44 23.9583V17.7083C44 17.4321 43.8946 17.1671 43.7071 16.9718C43.5196 16.7764 43.2652 16.6667 43 16.6667H37ZM28 18.75H32V22.9167H28V18.75ZM38 18.75H42V22.9167H38V18.75ZM7 27.0833C6.73478 27.0833 6.48043 27.1931 6.29289 27.3884C6.10536 27.5838 6 27.8487 6 28.125V34.375C6 34.6513 6.10536 34.9162 6.29289 35.1116C6.48043 35.3069 6.73478 35.4167 7 35.4167H13C13.2652 35.4167 13.5196 35.3069 13.7071 35.1116C13.8946 34.9162 14 34.6513 14 34.375V28.125C14 27.8487 13.8946 27.5838 13.7071 27.3884C13.5196 27.1931 13.2652 27.0833 13 27.0833H7ZM17 27.0833C16.7348 27.0833 16.4804 27.1931 16.2929 27.3884C16.1054 27.5838 16 27.8487 16 28.125V34.375C16 34.6513 16.1054 34.9162 16.2929 35.1116C16.4804 35.3069 16.7348 35.4167 17 35.4167H23C23.2652 35.4167 23.5196 35.3069 23.7071 35.1116C23.8946 34.9162 24 34.6513 24 34.375V28.125C24 27.8487 23.8946 27.5838 23.7071 27.3884C23.5196 27.1931 23.2652 27.0833 23 27.0833H17ZM27 27.0833C26.7348 27.0833 26.4804 27.1931 26.2929 27.3884C26.1054 27.5838 26 27.8487 26 28.125V34.375C26 34.6513 26.1054 34.9162 26.2929 35.1116C26.4804 35.3069 26.7348 35.4167 27 35.4167H33C33.2652 35.4167 33.5196 35.3069 33.7071 35.1116C33.8946 34.9162 34 34.6513 34 34.375V28.125C34 27.8487 33.8946 27.5838 33.7071 27.3884C33.5196 27.1931 33.2652 27.0833 33 27.0833H27ZM37 27.0833C36.7348 27.0833 36.4804 27.1931 36.2929 27.3884C36.1054 27.5838 36 27.8487 36 28.125V34.375C36 34.6513 36.1054 34.9162 36.2929 35.1116C36.4804 35.3069 36.7348 35.4167 37 35.4167H43C43.2652 35.4167 43.5196 35.3069 43.7071 35.1116C43.8946 34.9162 44 34.6513 44 34.375V28.125C44 27.8487 43.8946 27.5838 43.7071 27.3884C43.5196 27.1931 43.2652 27.0833 43 27.0833H37ZM8 29.1667H12V33.3333H8V29.1667ZM18 29.1667H22V33.3333H18V29.1667ZM28 29.1667H32V33.3333H28V29.1667ZM38 29.1667H42V33.3333H38V29.1667ZM7 37.5C6.73478 37.5 6.48043 37.6097 6.29289 37.8051C6.10536 38.0004 6 38.2654 6 38.5417V44.7917C6 45.0679 6.10536 45.3329 6.29289 45.5282C6.48043 45.7236 6.73478 45.8333 7 45.8333H13C13.2652 45.8333 13.5196 45.7236 13.7071 45.5282C13.8946 45.3329 14 45.0679 14 44.7917V38.5417C14 38.2654 13.8946 38.0004 13.7071 37.8051C13.5196 37.6097 13.2652 37.5 13 37.5H7ZM17 37.5C16.7348 37.5 16.4804 37.6097 16.2929 37.8051C16.1054 38.0004 16 38.2654 16 38.5417V44.7917C16 45.0679 16.1054 45.3329 16.2929 45.5282C16.4804 45.7236 16.7348 45.8333 17 45.8333H23C23.2652 45.8333 23.5196 45.7236 23.7071 45.5282C23.8946 45.3329 24 45.0679 24 44.7917V38.5417C24 38.2654 23.8946 38.0004 23.7071 37.8051C23.5196 37.6097 23.2652 37.5 23 37.5H17ZM27 37.5C26.7348 37.5 26.4804 37.6097 26.2929 37.8051C26.1054 38.0004 26 38.2654 26 38.5417V44.7917C26 45.0679 26.1054 45.3329 26.2929 45.5282C26.4804 45.7236 26.7348 45.8333 27 45.8333H33C33.2652 45.8333 33.5196 45.7236 33.7071 45.5282C33.8946 45.3329 34 45.0679 34 44.7917V38.5417C34 38.2654 33.8946 38.0004 33.7071 37.8051C33.5196 37.6097 33.2652 37.5 33 37.5H27ZM8 39.5833H12V43.75H8V39.5833ZM18 39.5833H22V43.75H18V39.5833ZM28 39.5833H32V43.75H28V39.5833Z" fill="black"/>
</svg>
